<svg width="157" height="155" viewBox="0 0 157 155" fill="none" xmlns="http://www.w3.org/2000/svg">
<path d="M83.3333 2.66602H72.6667C68.9867 2.66602 66 5.65268 66 9.33268V22.666C66 26.346 68.9867 29.3327 72.6667 29.3327H83.3333C87.0133 29.3327 90 26.346 90 22.666V9.33268C90 5.65268 87.0133 2.66602 83.3333 2.66602ZM73.8133 24.8393C73.56 25.0927 73.2267 25.226 72.88 25.226C72.52 25.226 72.1867 25.0927 71.9333 24.8393C71.68 24.586 71.5333 24.2527 71.5333 23.8927C71.5333 23.546 71.68 23.1993 71.9333 22.946C72.0533 22.826 72.2 22.7327 72.36 22.666C72.6933 22.5327 73.0533 22.5327 73.3867 22.666C73.4667 22.6927 73.5467 22.7327 73.6133 22.786C73.6933 22.826 73.76 22.8927 73.8133 22.946C74.0667 23.1993 74.2133 23.546 74.2133 23.8927C74.2133 24.2527 74.0667 24.586 73.8133 24.8393ZM71.5333 18.5593C71.5333 18.386 71.5733 18.2127 71.64 18.0527C71.7067 17.8793 71.8 17.746 71.9333 17.6127C72.24 17.306 72.7067 17.1593 73.1333 17.2527C73.2133 17.266 73.3067 17.2927 73.3867 17.3327C73.4667 17.3593 73.5467 17.3993 73.6133 17.4527C73.6933 17.4927 73.76 17.5593 73.8133 17.6127C73.9333 17.746 74.04 17.8793 74.1067 18.0527C74.1733 18.2127 74.2 18.386 74.2 18.5593C74.2 18.9193 74.0667 19.2527 73.8133 19.506C73.56 19.7593 73.2267 19.8927 72.88 19.8927C72.6933 19.8927 72.52 19.8527 72.36 19.786C72.2 19.7193 72.0533 19.626 71.9333 19.506C71.68 19.2527 71.5333 18.9193 71.5333 18.5593ZM79.1467 24.8393C79.0267 24.9593 78.88 25.0527 78.72 25.1194C78.56 25.186 78.3867 25.226 78.2 25.226C77.8533 25.226 77.52 25.0927 77.2667 24.8393C77.0133 24.586 76.8667 24.2527 76.8667 23.8927C76.8667 23.7993 76.88 23.7193 76.8933 23.626C76.92 23.546 76.9467 23.466 76.9733 23.386C77.0133 23.306 77.0533 23.226 77.0933 23.146C77.1467 23.0793 77.2 23.0127 77.2667 22.946C77.3867 22.826 77.5333 22.7327 77.6933 22.666C78.1867 22.466 78.7733 22.5727 79.1467 22.946C79.4 23.1993 79.5333 23.546 79.5333 23.8927C79.5333 24.2527 79.4 24.586 79.1467 24.8393ZM79.1467 19.506C78.8933 19.7593 78.56 19.8927 78.2 19.8927C77.8533 19.8927 77.52 19.7593 77.2667 19.506C77.0133 19.2527 76.8667 18.9193 76.8667 18.5593C76.8667 18.2127 77.0133 17.866 77.2667 17.6127C77.76 17.1193 78.6533 17.1193 79.1467 17.6127C79.2667 17.746 79.3733 17.8793 79.44 18.0527C79.5067 18.2127 79.5333 18.386 79.5333 18.5593C79.5333 18.9193 79.4 19.2527 79.1467 19.506ZM74 13.946C72.6267 13.946 71.4933 12.826 71.4933 11.4393V10.106C71.4933 8.73268 72.6133 7.59935 74 7.59935H82C83.3733 7.59935 84.5067 8.71935 84.5067 10.106V11.4393C84.5067 12.8127 83.3867 13.946 82 13.946H74ZM84.48 24.8393C84.2267 25.0927 83.8933 25.226 83.5333 25.226C83.36 25.226 83.1867 25.186 83.0267 25.1194C82.8667 25.0527 82.72 24.9593 82.6 24.8393C82.3467 24.586 82.2133 24.2527 82.2133 23.8927C82.2133 23.546 82.3467 23.1993 82.6 22.946C82.96 22.5727 83.56 22.466 84.0533 22.666C84.2133 22.7327 84.36 22.826 84.48 22.946C84.7333 23.1993 84.8667 23.546 84.8667 23.8927C84.8667 24.2527 84.7333 24.586 84.48 24.8393ZM84.7733 19.066C84.7067 19.226 84.6133 19.3727 84.48 19.506C84.2267 19.7593 83.8933 19.8927 83.5333 19.8927C83.1867 19.8927 82.8533 19.7593 82.6 19.506C82.3467 19.2527 82.2 18.9193 82.2 18.5593C82.2 18.2127 82.3467 17.866 82.6 17.6127C83.0933 17.1193 83.9867 17.1193 84.48 17.6127C84.7333 17.866 84.88 18.2127 84.88 18.5593C84.88 18.7327 84.84 18.906 84.7733 19.066Z" fill="white"/>
<g filter="url(#filter0_dd_40_411)">
<path d="M72.4289 46.5147C71.538 46.5147 71.0919 45.4376 71.7218 44.8076L77.7929 38.7365C78.1834 38.346 78.8166 38.346 79.2071 38.7365L85.2782 44.8076C85.9081 45.4376 85.462 46.5147 84.5711 46.5147L72.4289 46.5147Z" fill="#18181B"/>
<rect x="40.5" y="44" width="76" height="31" rx="8" fill="#18181B"/>
<path d="M53.8113 63V55.9H56.1413C56.7813 55.9 57.2946 56.0833 57.6813 56.45C58.068 56.8167 58.2613 57.26 58.2613 57.78C58.2613 58.4333 58.008 58.9167 57.5013 59.23C58.3213 59.53 58.7313 60.0967 58.7313 60.93C58.7313 61.53 58.5113 62.0267 58.0713 62.42C57.638 62.8067 57.0646 63 56.3513 63H53.8113ZM54.7413 62.16H56.3913C56.858 62.16 57.2113 62.0533 57.4513 61.84C57.698 61.62 57.8213 61.3267 57.8213 60.96C57.8213 60.6 57.698 60.31 57.4513 60.09C57.2113 59.8633 56.8613 59.75 56.4013 59.75H54.7413V62.16ZM54.7413 58.95H56.1413C56.5146 58.95 56.808 58.85 57.0213 58.65C57.2413 58.4433 57.3513 58.1767 57.3513 57.85C57.3513 57.5367 57.2413 57.2733 57.0213 57.06C56.8013 56.8467 56.508 56.74 56.1413 56.74H54.7413V58.95ZM62.0306 63.1C61.4839 63.1 61.0406 62.9167 60.7006 62.55C60.3606 62.1767 60.1906 61.6833 60.1906 61.07V58H61.0506V60.94C61.0506 61.36 61.1506 61.6933 61.3506 61.94C61.5573 62.1867 61.8339 62.31 62.1806 62.31C62.5806 62.31 62.9106 62.1467 63.1706 61.82C63.4373 61.4867 63.5706 61.04 63.5706 60.48V58H64.4306V63H63.5706V62.23C63.2439 62.81 62.7306 63.1 62.0306 63.1ZM68.4116 63.1C67.7183 63.1 67.1349 62.8467 66.6616 62.34C66.1949 61.8333 65.9616 61.22 65.9616 60.5C65.9616 59.78 66.1949 59.1667 66.6616 58.66C67.1349 58.1533 67.7183 57.9 68.4116 57.9C68.7783 57.9 69.1183 57.9833 69.4316 58.15C69.7516 58.31 69.9983 58.5167 70.1716 58.77V55.5H71.0316V63H70.1716V62.23C69.9983 62.4833 69.7516 62.6933 69.4316 62.86C69.1183 63.02 68.7783 63.1 68.4116 63.1ZM68.5416 62.31C69.0349 62.31 69.4416 62.1367 69.7616 61.79C70.0816 61.4433 70.2416 61.0133 70.2416 60.5C70.2416 59.9867 70.0816 59.5567 69.7616 59.21C69.4416 58.8633 69.0349 58.69 68.5416 58.69C68.0416 58.69 67.6316 58.8633 67.3116 59.21C66.9916 59.5567 66.8316 59.9867 66.8316 60.5C66.8316 61.0133 66.9916 61.4433 67.3116 61.79C67.6316 62.1367 68.0416 62.31 68.5416 62.31ZM73.9104 61.7C74.2238 62.0267 74.6304 62.19 75.1304 62.19C75.6304 62.19 76.0371 62.0267 76.3504 61.7C76.6638 61.3667 76.8204 60.9467 76.8204 60.44C76.8204 59.9333 76.6604 59.5167 76.3404 59.19C76.0271 58.8567 75.6238 58.69 75.1304 58.69C74.6371 58.69 74.2304 58.8567 73.9104 59.19C73.5971 59.5167 73.4404 59.9333 73.4404 60.44C73.4404 60.9467 73.5971 61.3667 73.9104 61.7ZM75.0804 65.19C74.5671 65.19 74.1038 65.0933 73.6904 64.9C73.2771 64.7133 72.9571 64.47 72.7304 64.17L73.3304 63.57C73.7704 64.13 74.3538 64.41 75.0804 64.41C75.5471 64.41 75.9404 64.2633 76.2604 63.97C76.5871 63.6767 76.7504 63.2467 76.7504 62.68V62.11C76.5704 62.3767 76.3271 62.59 76.0204 62.75C75.7138 62.91 75.3771 62.99 75.0104 62.99C74.3104 62.99 73.7271 62.7467 73.2604 62.26C72.7938 61.7667 72.5604 61.16 72.5604 60.44C72.5604 59.7267 72.7938 59.1267 73.2604 58.64C73.7338 58.1467 74.3171 57.9 75.0104 57.9C75.3771 57.9 75.7138 57.98 76.0204 58.14C76.3271 58.3 76.5704 58.51 76.7504 58.77V58H77.6104V62.71C77.6104 63.5167 77.3738 64.13 76.9004 64.55C76.4338 64.9767 75.8271 65.19 75.0804 65.19ZM81.7297 63.1C80.9631 63.1 80.3397 62.8533 79.8597 62.36C79.3797 61.8667 79.1397 61.2467 79.1397 60.5C79.1397 59.76 79.3831 59.1433 79.8697 58.65C80.3564 58.15 80.9797 57.9 81.7397 57.9C82.4131 57.9 82.9764 58.1267 83.4297 58.58C83.8897 59.0267 84.1197 59.6367 84.1197 60.41C84.1197 60.51 84.1164 60.5967 84.1097 60.67H80.0097C80.0231 61.1367 80.1897 61.5267 80.5097 61.84C80.8364 62.1533 81.2464 62.31 81.7397 62.31C82.4397 62.31 82.9597 62.02 83.2997 61.44L83.9797 61.91C83.4931 62.7033 82.7431 63.1 81.7297 63.1ZM80.0697 59.97H83.2397C83.1731 59.57 82.9964 59.2533 82.7097 59.02C82.4297 58.78 82.0964 58.66 81.7097 58.66C81.3164 58.66 80.9631 58.78 80.6497 59.02C80.3431 59.2533 80.1497 59.57 80.0697 59.97ZM87.5119 63.05C87.0519 63.05 86.6819 62.92 86.4019 62.66C86.1219 62.4 85.9819 62.02 85.9819 61.52V58.79H84.9219V58H85.9819V56.61H86.8419V58H88.2819V58.79H86.8419V61.41C86.8419 61.7233 86.9086 61.9433 87.0419 62.07C87.1752 62.1967 87.3852 62.26 87.6719 62.26C87.9252 62.26 88.1286 62.2267 88.2819 62.16V62.93C88.0419 63.01 87.7852 63.05 87.5119 63.05ZM90.5505 56.49C90.4372 56.6033 90.2938 56.66 90.1205 56.66C89.9472 56.66 89.8005 56.6033 89.6805 56.49C89.5605 56.37 89.5005 56.2233 89.5005 56.05C89.5005 55.8833 89.5605 55.74 89.6805 55.62C89.8005 55.5 89.9472 55.44 90.1205 55.44C90.2938 55.44 90.4372 55.5 90.5505 55.62C90.6638 55.74 90.7205 55.8833 90.7205 56.05C90.7205 56.2233 90.6638 56.37 90.5505 56.49ZM89.6805 63V58H90.5405V63H89.6805ZM92.4707 63V58H93.3307V58.77C93.6707 58.19 94.2007 57.9 94.9207 57.9C95.4874 57.9 95.9441 58.0833 96.2907 58.45C96.6374 58.8167 96.8107 59.3067 96.8107 59.92V63H95.9607V60.05C95.9607 59.63 95.8541 59.3 95.6407 59.06C95.4274 58.8133 95.1407 58.69 94.7807 58.69C94.3674 58.69 94.0207 58.8533 93.7407 59.18C93.4674 59.5067 93.3307 59.9533 93.3307 60.52V63H92.4707ZM99.6194 61.7C99.9327 62.0267 100.339 62.19 100.839 62.19C101.339 62.19 101.746 62.0267 102.059 61.7C102.373 61.3667 102.529 60.9467 102.529 60.44C102.529 59.9333 102.369 59.5167 102.049 59.19C101.736 58.8567 101.333 58.69 100.839 58.69C100.346 58.69 99.9394 58.8567 99.6194 59.19C99.3061 59.5167 99.1494 59.9333 99.1494 60.44C99.1494 60.9467 99.3061 61.3667 99.6194 61.7ZM100.789 65.19C100.276 65.19 99.8127 65.0933 99.3994 64.9C98.9861 64.7133 98.6661 64.47 98.4394 64.17L99.0394 63.57C99.4794 64.13 100.063 64.41 100.789 64.41C101.256 64.41 101.649 64.2633 101.969 63.97C102.296 63.6767 102.459 63.2467 102.459 62.68V62.11C102.279 62.3767 102.036 62.59 101.729 62.75C101.423 62.91 101.086 62.99 100.719 62.99C100.019 62.99 99.4361 62.7467 98.9694 62.26C98.5027 61.7667 98.2694 61.16 98.2694 60.44C98.2694 59.7267 98.5027 59.1267 98.9694 58.64C99.4427 58.1467 100.026 57.9 100.719 57.9C101.086 57.9 101.423 57.98 101.729 58.14C102.036 58.3 102.279 58.51 102.459 58.77V58H103.319V62.71C103.319 63.5167 103.083 64.13 102.609 64.55C102.143 64.9767 101.536 65.19 100.789 65.19Z" fill="white"/>
</g>
<defs>
<filter id="filter0_dd_40_411" x="0.5" y="38" width="156" height="117" filterUnits="userSpaceOnUse" color-interpolation-filters="sRGB">
<feFlood flood-opacity="0" result="BackgroundImageFix"/>
<feColorMatrix in="SourceAlpha" type="matrix" values="0 0 0 0 0 0 0 0 0 0 0 0 0 0 0 0 0 0 127 0" result="hardAlpha"/>
<feMorphology radius="10" operator="erode" in="SourceAlpha" result="effect1_dropShadow_40_411"/>
<feOffset dy="20"/>
<feGaussianBlur stdDeviation="10"/>
<feColorMatrix type="matrix" values="0 0 0 0 0 0 0 0 0 0 0 0 0 0 0 0 0 0 0.04 0"/>
<feBlend mode="normal" in2="BackgroundImageFix" result="effect1_dropShadow_40_411"/>
<feColorMatrix in="SourceAlpha" type="matrix" values="0 0 0 0 0 0 0 0 0 0 0 0 0 0 0 0 0 0 127 0" result="hardAlpha"/>
<feMorphology radius="10" operator="erode" in="SourceAlpha" result="effect2_dropShadow_40_411"/>
<feOffset dy="40"/>
<feGaussianBlur stdDeviation="25"/>
<feColorMatrix type="matrix" values="0 0 0 0 0 0 0 0 0 0 0 0 0 0 0 0 0 0 0.1 0"/>
<feBlend mode="normal" in2="effect1_dropShadow_40_411" result="effect2_dropShadow_40_411"/>
<feBlend mode="normal" in="SourceGraphic" in2="effect2_dropShadow_40_411" result="shape"/>
</filter>
</defs>
</svg>
