<svg width="152" height="84" viewBox="0 0 152 84" fill="none" xmlns="http://www.w3.org/2000/svg">
<path d="M84.3333 4.74602V2.66602C84.3333 2.11935 83.88 1.66602 83.3333 1.66602C82.7866 1.66602 82.3333 2.11935 82.3333 2.66602V4.66602H73.6666V2.66602C73.6666 2.11935 73.2133 1.66602 72.6666 1.66602C72.12 1.66602 71.6666 2.11935 71.6666 2.66602V4.74602C68.0666 5.07935 66.32 7.22602 66.0533 10.4127C66.0266 10.7993 66.3466 11.1193 66.72 11.1193H89.28C89.6666 11.1193 89.9866 10.786 89.9466 10.4127C89.68 7.22602 87.9333 5.07935 84.3333 4.74602Z" fill="white"/>
<path d="M88.6667 13.1191H67.3333C66.6 13.1191 66 13.7191 66 14.4525V22.6658C66 26.6658 68 29.3325 72.6667 29.3325H83.3333C88 29.3325 90 26.6658 90 22.6658V14.4525C90 13.7191 89.4 13.1191 88.6667 13.1191ZM74.28 24.2791C74.2133 24.3325 74.1467 24.3991 74.08 24.4391C74 24.4925 73.92 24.5325 73.84 24.5591C73.76 24.5991 73.68 24.6258 73.6 24.6391C73.5067 24.6525 73.4267 24.6658 73.3333 24.6658C73.16 24.6658 72.9867 24.6258 72.8267 24.5591C72.6533 24.4925 72.52 24.3991 72.3867 24.2791C72.1467 24.0258 72 23.6791 72 23.3325C72 22.9858 72.1467 22.6391 72.3867 22.3858C72.52 22.2658 72.6533 22.1725 72.8267 22.1058C73.0667 21.9991 73.3333 21.9725 73.6 22.0258C73.68 22.0391 73.76 22.0658 73.84 22.1058C73.92 22.1325 74 22.1725 74.08 22.2258C74.1467 22.2791 74.2133 22.3325 74.28 22.3858C74.52 22.6391 74.6667 22.9858 74.6667 23.3325C74.6667 23.6791 74.52 24.0258 74.28 24.2791ZM74.28 19.6125C74.0267 19.8525 73.68 19.9991 73.3333 19.9991C72.9867 19.9991 72.64 19.8525 72.3867 19.6125C72.1467 19.3591 72 19.0125 72 18.6658C72 18.3191 72.1467 17.9725 72.3867 17.7191C72.76 17.3458 73.3467 17.2258 73.84 17.4391C74.0133 17.5058 74.16 17.5991 74.28 17.7191C74.52 17.9725 74.6667 18.3191 74.6667 18.6658C74.6667 19.0125 74.52 19.3591 74.28 19.6125ZM78.9467 24.2791C78.6933 24.5191 78.3467 24.6658 78 24.6658C77.6533 24.6658 77.3067 24.5191 77.0533 24.2791C76.8133 24.0258 76.6667 23.6791 76.6667 23.3325C76.6667 22.9858 76.8133 22.6391 77.0533 22.3858C77.5467 21.8925 78.4533 21.8925 78.9467 22.3858C79.1867 22.6391 79.3333 22.9858 79.3333 23.3325C79.3333 23.6791 79.1867 24.0258 78.9467 24.2791ZM78.9467 19.6125C78.88 19.6658 78.8133 19.7191 78.7467 19.7725C78.6667 19.8258 78.5867 19.8658 78.5067 19.8925C78.4267 19.9325 78.3467 19.9591 78.2667 19.9725C78.1733 19.9858 78.0933 19.9991 78 19.9991C77.6533 19.9991 77.3067 19.8525 77.0533 19.6125C76.8133 19.3591 76.6667 19.0125 76.6667 18.6658C76.6667 18.3191 76.8133 17.9725 77.0533 17.7191C77.1733 17.5991 77.32 17.5058 77.4933 17.4391C77.9867 17.2258 78.5733 17.3458 78.9467 17.7191C79.1867 17.9725 79.3333 18.3191 79.3333 18.6658C79.3333 19.0125 79.1867 19.3591 78.9467 19.6125ZM83.6133 24.2791C83.36 24.5191 83.0133 24.6658 82.6667 24.6658C82.32 24.6658 81.9733 24.5191 81.72 24.2791C81.48 24.0258 81.3333 23.6791 81.3333 23.3325C81.3333 22.9858 81.48 22.6391 81.72 22.3858C82.2133 21.8925 83.12 21.8925 83.6133 22.3858C83.8533 22.6391 84 22.9858 84 23.3325C84 23.6791 83.8533 24.0258 83.6133 24.2791ZM83.6133 19.6125C83.5467 19.6658 83.48 19.7191 83.4133 19.7725C83.3333 19.8258 83.2533 19.8658 83.1733 19.8925C83.0933 19.9325 83.0133 19.9591 82.9333 19.9725C82.84 19.9858 82.7467 19.9991 82.6667 19.9991C82.32 19.9991 81.9733 19.8525 81.72 19.6125C81.48 19.3591 81.3333 19.0125 81.3333 18.6658C81.3333 18.3191 81.48 17.9725 81.72 17.7191C81.8533 17.5991 81.9867 17.5058 82.16 17.4391C82.4 17.3325 82.6667 17.3058 82.9333 17.3591C83.0133 17.3725 83.0933 17.3991 83.1733 17.4391C83.2533 17.4658 83.3333 17.5058 83.4133 17.5591C83.48 17.6125 83.5467 17.6658 83.6133 17.7191C83.8533 17.9725 84 18.3191 84 18.6658C84 19.0125 83.8533 19.3591 83.6133 19.6125Z" fill="white"/>
<g filter="url(#filter0_dd_40_417)">
<path d="M69.9289 46.5147C69.038 46.5147 68.5919 45.4376 69.2218 44.8076L75.2929 38.7365C75.6834 38.346 76.3166 38.346 76.7071 38.7365L82.7782 44.8076C83.4081 45.4376 82.962 46.5147 82.0711 46.5147L69.9289 46.5147Z" fill="#18181B"/>
<rect x="40.5" y="44" width="71" height="31" rx="8" fill="#18181B"/>
<path d="M56.9216 63.12C55.9016 63.12 55.0349 62.7667 54.3216 62.06C53.6082 61.3467 53.2516 60.4767 53.2516 59.45C53.2516 58.4233 53.6082 57.5567 54.3216 56.85C55.0349 56.1367 55.9016 55.78 56.9216 55.78C57.5949 55.78 58.2049 55.9333 58.7516 56.24C59.2982 56.5467 59.7349 56.9667 60.0616 57.5L59.2816 57.97C59.0282 57.5633 58.6982 57.2433 58.2916 57.01C57.8849 56.7767 57.4282 56.66 56.9216 56.66C56.1482 56.66 55.4982 56.93 54.9716 57.47C54.4516 58.01 54.1916 58.67 54.1916 59.45C54.1916 60.23 54.4516 60.89 54.9716 61.43C55.4982 61.97 56.1482 62.24 56.9216 62.24C57.4282 62.24 57.8849 62.1233 58.2916 61.89C58.6982 61.6567 59.0282 61.3367 59.2816 60.93L60.0616 61.4C59.7349 61.9333 59.2982 62.3533 58.7516 62.66C58.2049 62.9667 57.5949 63.12 56.9216 63.12ZM63.5204 63.1C62.8271 63.1 62.2437 62.8467 61.7704 62.34C61.3037 61.8333 61.0704 61.22 61.0704 60.5C61.0704 59.78 61.3037 59.1667 61.7704 58.66C62.2437 58.1533 62.8271 57.9 63.5204 57.9C63.8871 57.9 64.2271 57.9833 64.5404 58.15C64.8604 58.31 65.1071 58.5167 65.2804 58.77V58H66.1404V63H65.2804V62.23C65.1071 62.4833 64.8604 62.6933 64.5404 62.86C64.2271 63.02 63.8871 63.1 63.5204 63.1ZM63.6504 62.31C64.1437 62.31 64.5504 62.1367 64.8704 61.79C65.1904 61.4433 65.3504 61.0133 65.3504 60.5C65.3504 59.9867 65.1904 59.5567 64.8704 59.21C64.5504 58.8633 64.1437 58.69 63.6504 58.69C63.1504 58.69 62.7404 58.8633 62.4204 59.21C62.1004 59.5567 61.9404 59.9867 61.9404 60.5C61.9404 61.0133 62.1004 61.4433 62.4204 61.79C62.7404 62.1367 63.1504 62.31 63.6504 62.31ZM68.0592 63V55.5H68.9192V63H68.0592ZM73.0495 63.1C72.2828 63.1 71.6595 62.8533 71.1795 62.36C70.6995 61.8667 70.4595 61.2467 70.4595 60.5C70.4595 59.76 70.7028 59.1433 71.1895 58.65C71.6761 58.15 72.2995 57.9 73.0595 57.9C73.7328 57.9 74.2961 58.1267 74.7495 58.58C75.2095 59.0267 75.4395 59.6367 75.4395 60.41C75.4395 60.51 75.4361 60.5967 75.4295 60.67H71.3295C71.3428 61.1367 71.5095 61.5267 71.8295 61.84C72.1561 62.1533 72.5661 62.31 73.0595 62.31C73.7595 62.31 74.2795 62.02 74.6195 61.44L75.2995 61.91C74.8128 62.7033 74.0628 63.1 73.0495 63.1ZM71.3895 59.97H74.5595C74.4928 59.57 74.3161 59.2533 74.0295 59.02C73.7495 58.78 73.4161 58.66 73.0295 58.66C72.6361 58.66 72.2828 58.78 71.9695 59.02C71.6628 59.2533 71.4695 59.57 71.3895 59.97ZM76.96 63V58H77.82V58.77C78.16 58.19 78.69 57.9 79.41 57.9C79.9767 57.9 80.4333 58.0833 80.78 58.45C81.1267 58.8167 81.3 59.3067 81.3 59.92V63H80.45V60.05C80.45 59.63 80.3433 59.3 80.13 59.06C79.9167 58.8133 79.63 58.69 79.27 58.69C78.8567 58.69 78.51 58.8533 78.23 59.18C77.9567 59.5067 77.82 59.9533 77.82 60.52V63H76.96ZM85.2087 63.1C84.5153 63.1 83.932 62.8467 83.4587 62.34C82.992 61.8333 82.7587 61.22 82.7587 60.5C82.7587 59.78 82.992 59.1667 83.4587 58.66C83.932 58.1533 84.5153 57.9 85.2087 57.9C85.5753 57.9 85.9153 57.9833 86.2287 58.15C86.5487 58.31 86.7953 58.5167 86.9687 58.77V55.5H87.8287V63H86.9687V62.23C86.7953 62.4833 86.5487 62.6933 86.2287 62.86C85.9153 63.02 85.5753 63.1 85.2087 63.1ZM85.3387 62.31C85.832 62.31 86.2387 62.1367 86.5587 61.79C86.8787 61.4433 87.0387 61.0133 87.0387 60.5C87.0387 59.9867 86.8787 59.5567 86.5587 59.21C86.2387 58.8633 85.832 58.69 85.3387 58.69C84.8387 58.69 84.4287 58.8633 84.1087 59.21C83.7887 59.5567 83.6287 59.9867 83.6287 60.5C83.6287 61.0133 83.7887 61.4433 84.1087 61.79C84.4287 62.1367 84.8387 62.31 85.3387 62.31ZM91.8075 63.1C91.1142 63.1 90.5308 62.8467 90.0575 62.34C89.5908 61.8333 89.3575 61.22 89.3575 60.5C89.3575 59.78 89.5908 59.1667 90.0575 58.66C90.5308 58.1533 91.1142 57.9 91.8075 57.9C92.1742 57.9 92.5142 57.9833 92.8275 58.15C93.1475 58.31 93.3942 58.5167 93.5675 58.77V58H94.4275V63H93.5675V62.23C93.3942 62.4833 93.1475 62.6933 92.8275 62.86C92.5142 63.02 92.1742 63.1 91.8075 63.1ZM91.9375 62.31C92.4308 62.31 92.8375 62.1367 93.1575 61.79C93.4775 61.4433 93.6375 61.0133 93.6375 60.5C93.6375 59.9867 93.4775 59.5567 93.1575 59.21C92.8375 58.8633 92.4308 58.69 91.9375 58.69C91.4375 58.69 91.0275 58.8633 90.7075 59.21C90.3875 59.5567 90.2275 59.9867 90.2275 60.5C90.2275 61.0133 90.3875 61.4433 90.7075 61.79C91.0275 62.1367 91.4375 62.31 91.9375 62.31ZM96.3463 63V58H97.2063V58.97C97.2997 58.6633 97.4797 58.4167 97.7463 58.23C98.0197 58.0433 98.3063 57.95 98.6063 57.95C98.753 57.95 98.883 57.9633 98.9963 57.99V58.88C98.8763 58.8267 98.7197 58.8 98.5263 58.8C98.1797 58.8 97.873 58.95 97.6063 59.25C97.3397 59.55 97.2063 59.9733 97.2063 60.52V63H96.3463Z" fill="white"/>
</g>
<defs>
<filter id="filter0_dd_40_417" x="0.5" y="38" width="151" height="117" filterUnits="userSpaceOnUse" color-interpolation-filters="sRGB">
<feFlood flood-opacity="0" result="BackgroundImageFix"/>
<feColorMatrix in="SourceAlpha" type="matrix" values="0 0 0 0 0 0 0 0 0 0 0 0 0 0 0 0 0 0 127 0" result="hardAlpha"/>
<feMorphology radius="10" operator="erode" in="SourceAlpha" result="effect1_dropShadow_40_417"/>
<feOffset dy="20"/>
<feGaussianBlur stdDeviation="10"/>
<feColorMatrix type="matrix" values="0 0 0 0 0 0 0 0 0 0 0 0 0 0 0 0 0 0 0.04 0"/>
<feBlend mode="normal" in2="BackgroundImageFix" result="effect1_dropShadow_40_417"/>
<feColorMatrix in="SourceAlpha" type="matrix" values="0 0 0 0 0 0 0 0 0 0 0 0 0 0 0 0 0 0 127 0" result="hardAlpha"/>
<feMorphology radius="10" operator="erode" in="SourceAlpha" result="effect2_dropShadow_40_417"/>
<feOffset dy="40"/>
<feGaussianBlur stdDeviation="25"/>
<feColorMatrix type="matrix" values="0 0 0 0 0 0 0 0 0 0 0 0 0 0 0 0 0 0 0.1 0"/>
<feBlend mode="normal" in2="effect1_dropShadow_40_417" result="effect2_dropShadow_40_417"/>
<feBlend mode="normal" in="SourceGraphic" in2="effect2_dropShadow_40_417" result="shape"/>
</filter>
</defs>
</svg>
